<svg width="56" height="69" viewBox="0 0 56 69" fill="none" xmlns="http://www.w3.org/2000/svg">
<g opacity="0.3">
<path fill-rule="evenodd" clip-rule="evenodd" d="M2.17409 18.6198C1.75044 17.0388 1.28781 15.4653 0.916889 13.8715C0.680488 12.8577 0.942276 11.8528 1.34773 10.9195C1.60549 10.3266 2.07429 9.87144 2.79525 9.86319C3.74463 9.85346 3.26709 10.5312 3.41003 11.0002C6.17137 20.073 9.98858 28.7413 13.6261 37.4801C14.4687 39.5051 15.069 41.6404 15.6371 43.7635C15.8143 44.4276 16.2346 45.4375 15.0269 45.823C14 46.1507 13.5024 45.5019 13.0741 44.7654C10.851 40.94 9.26757 36.8138 7.49518 32.7799C5.46564 28.1622 3.83793 23.3873 2.17409 18.6198Z" fill="#726C65"/>
<path fill-rule="evenodd" clip-rule="evenodd" d="M35.262 60.6054C35.2324 59.5549 35.4644 58.3342 36.3315 57.4694C40.5269 53.2842 44.9009 49.2872 49.5183 45.5703C50.7358 44.59 50.6119 45.1535 51.4778 46.3469C53.5937 49.262 51.2192 50.707 49.9153 52.4711C47.612 55.5866 44.7752 58.1794 41.5681 60.3628C40.7336 60.9303 39.921 61.5309 39.1127 62.1346C36.8729 63.8055 36.1862 63.5656 35.262 60.6054Z" fill="#726C65"/>
<path fill-rule="evenodd" clip-rule="evenodd" d="M28.0056 54.4042C25.7699 52.2236 26.5507 49.8096 26.9659 47.3446C27.7444 42.7172 29.3982 38.3596 30.8081 33.9242C31.0643 33.1187 31.2686 31.8536 32.203 31.9386C33.1182 32.0215 33.2777 33.3042 33.5272 34.1656C33.8977 35.4407 33.3982 36.6863 33.0869 37.8742C31.7845 42.8586 30.364 47.8128 28.9679 52.7727C28.8038 53.3578 28.6707 53.9972 28.0056 54.4042Z" fill="#726C65"/>
</g>
</svg>
