<svg width="91" height="66" viewBox="0 0 91 66" fill="none" xmlns="http://www.w3.org/2000/svg">
<g opacity="0.3">
<path fill-rule="evenodd" clip-rule="evenodd" d="M16.943 55.6004C16.3114 56.0991 15.758 56.6509 15.2837 57.3231C14.942 57.8085 14.4603 58.2261 13.9107 58.5752C13.3072 58.958 12.8536 59.5822 12.2282 59.9823C11.8417 60.2291 11.5758 60.831 10.9756 60.3646C10.7064 60.517 10.4372 60.6694 10.0988 60.8612C9.89042 60.6077 9.68581 60.3642 9.48947 60.1152C9.44764 60.0622 9.41657 59.9305 9.40829 59.933C8.73066 60.1256 8.35663 59.3191 7.68397 59.4256C7.31823 59.4836 6.7603 59.0826 6.80089 58.7815C6.88291 58.173 6.47657 57.9109 6.13113 57.5538C5.99734 56.7962 6.2003 56.0962 6.54243 55.4025C6.88001 54.7174 7.09829 53.9697 7.46527 53.3029C8.20959 51.9493 9.01314 50.6288 9.80261 49.3004C10.6173 47.9294 11.488 46.5978 12.4121 45.2955C13.2554 44.1064 14.0685 42.8948 14.9101 41.7032C15.4229 40.9771 15.9237 40.2419 16.424 39.5067C16.4456 39.4752 16.4058 39.4031 16.3694 39.2325C16.113 39.4396 15.9162 39.7208 15.6801 39.7585C15.3699 39.8086 15.1131 39.7949 15.0775 40.1822C14.5465 40.0053 14.4678 40.8325 13.9517 40.6892C13.8063 41.0139 13.4878 41.2326 13.2189 41.3192C12.9033 41.4215 12.6295 41.4198 12.5189 41.8125C12.4879 41.9235 12.1872 42.0697 12.0741 42.0275C11.5795 41.8423 11.5895 42.4827 11.2577 42.4897C10.8563 42.498 10.6426 42.6695 10.6107 43.068C10.0963 43.1682 9.80302 43.6147 9.37971 43.8628C9.0148 44.0761 8.59521 44.3164 8.40095 44.6589C8.27669 44.8788 8.1777 44.958 7.97847 45.0251C7.32859 45.245 6.89989 45.7992 6.31421 46.1326C5.72356 46.4685 5.23231 46.9776 4.69137 47.4038C4.01166 47.9398 3.32865 48.472 2.64273 49.0006C2.23101 49.3178 1.77829 49.1609 1.41959 48.9649C1.14746 48.8162 0.983853 48.5615 0.633025 48.8034C0.58622 48.8353 0.357995 48.6054 0.141782 48.4418C0.344741 48.3006 0.521605 48.178 0.699297 48.0549C0.669889 48.0052 0.640894 47.9551 0.611072 47.9054C0.436693 47.9696 0.262729 48.0338 0.0630838 48.1071C0.0473441 48.0417 -0.0222417 47.9245 0.00716663 47.8429C0.077995 47.6478 0.159178 47.4349 0.299593 47.2903C1.08616 46.4797 1.85409 45.6459 2.69782 44.8983C4.1177 43.64 5.56533 42.409 7.049 41.2264C8.06379 40.4171 9.10013 39.6301 10.134 38.8464C11.0643 38.141 12.036 37.4667 12.9849 36.7845C14.2018 35.9097 15.4432 35.0809 16.7007 34.2724C17.5001 33.7584 18.3198 33.2767 19.1317 32.7821C19.6689 32.4553 20.2662 32.5762 20.8444 32.5526C21.247 32.7709 21.4632 33.1818 22.0211 33.2878C22.6565 33.4092 23.8349 35.1273 23.9273 35.8343C23.9956 36.3579 23.7102 36.8578 23.5504 37.3615C23.2708 38.2438 22.8781 39.0614 22.273 39.7701C22.2079 39.8467 22.1234 39.9784 22.1483 40.0488C22.3562 40.6329 21.662 40.8346 21.6314 41.3101C21.0345 41.6576 20.7603 42.2789 20.366 42.7987C20.2985 42.8878 20.1382 42.9599 20.1386 43.0394C20.1469 44.0807 19.3147 44.6647 18.8484 45.4451C18.703 45.6886 18.5004 45.9019 18.3824 46.1562C18.3008 46.331 18.3198 46.5518 18.2941 46.7519C18.4565 46.7717 18.5588 46.8161 18.5953 46.7842C19.3723 46.1078 20.1059 45.3751 20.9218 44.7513C21.9847 43.9394 22.9096 42.9636 24.0549 42.2458C24.602 41.9024 25.0121 41.3602 25.5551 40.9659C26.5562 40.2394 27.4103 39.3045 28.4301 38.6099C30.1826 37.417 31.6484 35.8472 33.516 34.815C34.0019 34.0421 34.9111 33.7588 35.5021 33.1019C35.6612 32.9246 35.9168 32.8364 36.1185 32.6943C36.4117 32.488 36.7008 32.2759 36.9837 32.056C38.1236 31.1704 39.2577 30.2774 40.3992 29.3943C40.8814 29.022 41.3896 28.6823 41.8647 28.3013C43.2063 27.2256 44.6262 26.2584 46.0154 25.2486C46.7382 24.7234 47.3715 24.0801 48.2227 23.7446C48.8175 22.8761 49.7884 22.473 50.5844 21.8555C51.5471 21.1091 52.5378 20.3987 53.5211 19.6788C54.7911 18.749 56.0635 17.8228 57.3388 16.9004C58.1486 16.3151 58.9629 15.7356 59.7801 15.1603C60.7709 14.4628 61.7849 13.8001 62.7632 13.0819C64.2506 11.9904 65.8076 10.9935 67.3401 9.96417C69.2533 8.6789 71.1653 7.39156 73.0905 6.12411C74.1512 5.42576 75.2327 4.75807 76.3134 4.09079C77.6007 3.29594 78.8831 2.49032 80.1953 1.7373C81.1413 1.1947 82.1163 0.708427 83.0131 0.0751134C83.2322 -0.0793836 83.653 0.0523324 84.112 0.0523324C83.991 0.24038 83.9376 0.382037 83.8369 0.469433C83.5341 0.732865 83.2123 0.975587 82.8408 1.27215C83.646 1.64701 84.17 0.553102 84.8385 0.956119C84.6301 1.16446 84.4052 1.38896 84.1803 1.61346C84.2226 1.68014 84.2644 1.74683 84.3066 1.81352C84.5456 1.74434 84.7842 1.67517 85.1015 1.58322C85.1553 1.99908 85.2079 2.40541 85.2796 2.96417C84.9975 3.18866 84.631 3.68156 84.1708 3.79505C83.6124 3.93257 83.438 4.62139 82.7969 4.56423C82.6299 4.54931 82.7422 5.13002 82.328 4.98961C81.884 4.83843 82.1408 5.55748 81.7431 5.4444C81.372 5.33878 81.3488 5.8321 81.2573 5.82878C80.6791 5.80973 80.5212 6.37843 80.1058 6.57642C79.663 6.78766 79.2422 7.066 78.857 7.37168C78.5132 7.64423 78.1785 7.87369 77.7316 7.94245C77.5738 7.96647 77.324 8.1276 77.3145 8.24233C77.283 8.62588 77.0457 8.56789 76.7922 8.62837C76.6099 8.67186 76.496 8.98251 76.3105 9.04008C76.0943 9.10677 75.8478 9.0463 75.91 9.39713C75.1387 9.4402 74.9482 10.5142 74.0924 10.4235C74.0092 10.4148 73.8758 10.5043 73.8294 10.5846C73.2868 11.5245 72.2778 11.8794 71.4689 12.4833C70.2901 13.3631 69.1133 14.2458 67.9291 15.1172C66.9789 15.8164 66.0325 16.5218 65.0566 17.1845C64.5381 17.5366 64.162 18.1678 63.4036 18.1028C63.3514 18.0982 63.2598 18.1761 63.2391 18.2345C62.8245 19.4042 61.4771 19.3512 60.7614 20.1266C60.6417 20.2567 60.4366 20.3184 60.3414 20.4592C59.4935 21.7151 58.0765 22.2925 56.9988 23.2778C56.2076 24.001 55.2827 24.5772 54.4299 25.2345C53.3712 26.0501 52.3278 26.8851 51.272 27.7036C51.1656 27.786 51.0198 27.82 50.8889 27.8664C49.8182 28.2449 49.0693 29.1011 48.1547 29.7129C47.9534 29.8479 47.7633 30.0749 47.6826 30.3002C47.4986 30.8138 47.0215 31.0714 46.633 31.1535C46.2188 31.24 45.9872 31.4484 45.713 31.684C45.1733 32.148 44.5321 32.5087 44.2111 33.1897C43.2324 33.801 42.3762 34.5851 41.4894 35.3058C40.7592 35.8998 39.8952 36.3596 39.3153 37.159C38.9342 37.6833 38.3059 37.9563 37.714 38.1754C37.4671 38.2669 37.231 38.32 37.0707 38.5283C36.8976 38.7528 36.7961 39.0709 36.5753 39.2109C36.333 39.3642 36.2001 39.5559 36.0257 39.7614C35.5357 40.3388 34.9943 40.8971 34.1436 40.9174C34.0756 40.9191 33.9957 40.9369 33.9439 40.9767C33.5715 41.2641 33.1723 41.5263 32.8467 41.861C32.4677 42.2495 31.9549 42.5365 31.7946 43.1148C31.7772 43.1777 31.6965 43.2266 31.6393 43.2751C31.1659 43.6756 30.697 44.0823 30.2144 44.4713C29.7311 44.8606 29.3666 45.3593 28.8157 45.7081C28.3116 46.0266 27.8394 46.44 27.3357 46.7896C27.0379 46.9739 26.5848 47.0919 26.4721 47.3554C26.1313 48.1527 25.092 48.1755 24.805 48.9807C24.0271 49.1787 23.6825 49.9574 23.0218 50.314C22.8375 50.4134 22.5786 50.4793 22.4921 50.6367C22.0261 51.4866 20.9964 51.7533 20.5242 52.5842C19.8549 52.735 19.5252 53.273 19.1039 53.7415C18.7875 54.0936 18.2946 54.2866 17.8804 54.55C17.8592 55.1606 17.2094 55.2094 16.943 55.6004Z" fill="#726C65"/>
<path fill-rule="evenodd" clip-rule="evenodd" d="M89.4658 13.126C89.8279 13.0461 90.1899 12.9661 90.7192 12.8489C90.5163 13.0796 90.4479 13.1579 90.3572 13.261C90.4931 13.3066 90.6211 13.3497 90.754 13.394C90.8464 13.7523 90.9756 14.1735 90.5626 14.3641C90.3514 14.4614 90.0176 14.2936 89.7077 14.3694C89.8473 14.4374 89.9873 14.5053 90.1439 14.5811C89.6787 15.1432 89.057 15.2351 88.3761 15.1357C88.3504 15.39 88.3322 15.5681 88.3065 15.8191C87.8173 15.4 87.4433 15.9186 86.8986 15.8784C87.0183 16.1128 87.095 16.2636 87.172 16.4144C86.9956 16.5295 86.8046 16.6993 86.5813 16.7892C86.2624 16.9176 86.0338 17.4801 85.5703 17.0332C85.5483 17.0125 85.4551 17.0369 85.417 17.0675C85.3292 17.1375 85.2687 17.2573 85.1726 17.2978C84.8197 17.4461 84.3956 17.4954 84.1164 17.7253C83.8692 17.9291 83.8074 18.3433 83.6082 18.6262C83.4926 18.7902 83.2814 18.9066 83.0896 18.9923C82.8858 19.0839 82.132 19.4583 82.0297 19.7044C81.9179 19.9719 81.7431 19.8605 81.5877 19.9077C81.3889 19.9682 81.1715 20.0196 81.0116 20.1413C80.8902 20.2337 80.8467 20.4292 80.7742 20.5684C80.5825 20.399 80.3957 20.2333 80.0689 19.9442C80.1161 20.3878 79.6957 20.4536 79.8883 20.8852C80.0026 21.1416 79.2964 21.5314 78.8677 21.3599C78.5744 21.2423 78.5972 21.4974 78.4593 21.5347C78.6908 22.2177 78.0807 22.2633 77.7237 22.4882C77.5472 22.5996 77.0029 22.9683 76.9263 23.0635C76.8588 23.1459 76.7722 23.2126 76.701 23.2797C76.609 23.2052 76.5316 23.1194 76.4359 23.073C76.3808 23.0465 76.2951 23.0838 76.177 23.0979C76.2466 23.2474 76.31 23.3845 76.3692 23.5121C76.3336 23.5908 76.3228 23.6815 76.2731 23.7134C75.8883 23.9607 75.4696 24.1628 75.1113 24.4428C74.2522 25.1138 73.423 25.8225 72.5776 26.5113C71.528 27.3658 70.4553 28.1893 69.4827 29.1378C69.0279 29.5818 68.7471 29.9028 68.6071 30.5564C68.1722 30.3307 67.6789 30.341 67.3015 29.9521C66.9685 29.6087 66.6458 30.0167 66.2714 30.1588C66.0875 29.349 66.7771 29.2036 67.0969 28.8259C66.99 28.7194 66.8836 28.613 66.7858 28.5148C66.5626 28.6759 66.3406 28.8354 66.0651 29.0338C66.0179 28.8371 65.9413 28.7099 65.9773 28.6391C66.3849 27.8359 67.0542 27.259 67.7207 26.6841C67.9096 26.5217 68.1419 26.4086 68.325 26.2409C69.7909 24.8964 71.4133 23.7606 73.0183 22.5917C74.5169 21.5007 76.0992 20.5398 77.5928 19.4484C78.0252 19.1328 78.6154 19.0677 78.9294 18.5794C80.3812 18.0877 81.3612 16.7838 82.8593 16.3646C83.0635 16.677 82.8167 16.7101 82.5404 16.7925C82.376 16.8418 82.4385 17.0903 82.1805 17.2266C81.0924 17.8023 80.0701 18.5032 79.0276 19.1642C78.9584 19.2081 78.9186 19.2988 78.7302 19.5416C79.0532 19.4285 79.1709 19.3647 79.2943 19.3477C79.7379 19.2889 79.9272 18.8175 80.4073 18.7393C80.7896 18.6767 81.1532 18.3387 81.4684 18.0591C82.1419 17.4619 82.989 17.1736 83.742 16.7196C84.2506 16.4131 84.6831 15.9877 85.2841 15.8063C85.5173 15.7359 85.6643 15.3834 85.8507 15.1593C86.2376 14.9336 86.6331 14.7211 87.0084 14.4775C87.353 14.2547 87.766 14.2228 88.0733 13.8306C88.3748 13.4454 89.0492 13.4764 89.4658 13.126Z" fill="#726C65"/>
<path fill-rule="evenodd" clip-rule="evenodd" d="M42.4726 43.6262C42.8255 43.3868 43.3462 43.2203 43.4899 42.8898C43.692 42.4251 44.0722 42.2909 44.3995 42.0486C44.7391 41.7971 45.1193 41.602 45.4689 41.3643C45.8243 41.1228 46.2021 40.8967 46.5028 40.5972C47.1506 39.9527 47.8841 39.4279 48.6425 38.9313C48.8153 38.8174 49.0253 38.7606 49.203 38.6521C49.3798 38.5436 49.6147 38.438 49.6892 38.271C50.0595 37.4426 50.8535 37.1332 51.5473 36.7161C51.947 36.4759 52.2125 36.5993 52.6425 37.0462C52.4925 37.5971 51.8021 37.7491 51.6774 38.3443C51.6579 38.4363 51.2955 38.4574 51.0913 38.5092C50.7794 38.5891 50.994 39.1649 50.5694 39.0982C50.1954 39.0394 50.2045 39.3252 50.0624 39.5066C50.0185 39.5629 49.7617 39.4536 49.5579 39.4109C49.4403 39.6449 49.2895 39.9432 49.1408 40.2385H48.7639C48.5025 40.5537 48.3041 41.0164 48.0378 41.0603C47.6373 41.1261 47.7367 41.7781 47.2467 41.6025C47.1858 41.5809 47.0528 41.6712 46.9969 41.7433C46.8905 41.8812 46.8424 42.1463 46.7236 42.1765C46.2592 42.2954 46.0882 42.8152 45.6806 42.9337C44.9036 43.1594 44.3858 43.7849 43.6875 44.1233C43.5475 44.1908 43.3975 44.4008 43.3917 44.5507C43.3722 45.0184 43.127 45.1136 42.7178 45.2449C42.4067 45.3448 42.1089 45.7432 41.9751 46.0771C41.7958 46.5223 41.2254 46.0986 41.1041 46.5836C41.0436 46.8264 40.9082 47.1996 40.5416 46.8003C40.4351 46.9067 40.2338 47.0173 40.2376 47.1192C40.2604 47.661 39.8138 47.376 39.6026 47.5098C39.4394 47.656 39.9588 47.7683 39.5956 48.0031C39.0472 48.3572 38.6147 48.8916 38.0614 49.2333C37.8596 49.358 37.7561 49.4338 37.682 49.6438C37.6376 49.7684 37.4496 49.9557 37.3721 49.9358C36.721 49.7688 36.4269 50.2522 36.0488 50.5972C36.0347 50.6101 35.8934 50.4838 35.7837 50.4013C35.6101 50.6457 35.8367 51.1829 35.2721 51.1767C35.1934 51.1759 35.0866 51.3117 35.0369 51.4074C34.5618 52.3158 34.5696 52.3236 33.7661 52.8923C33.6211 52.9951 33.6969 53.6151 33.2641 53.1255C33.2587 53.1193 33.0118 53.2531 32.9944 53.3438C32.8466 54.1138 32.1561 54.4236 31.6909 54.9228C31.0829 54.8333 30.9139 55.4161 30.5337 55.6754C30.2839 55.8456 30.0043 55.9052 30.0089 56.3596C30.0122 56.6781 29.5918 56.8243 29.1767 56.6777C29.3312 56.4329 29.4828 56.1927 29.6775 55.8841C29.5085 55.897 29.434 55.8804 29.4066 55.909C29.2604 56.061 29.0902 56.1533 28.951 55.9504C28.9038 55.8812 28.9783 55.6319 29.0628 55.5855C29.6154 55.2835 29.8606 54.7442 30.1613 54.2451C30.6103 54.2795 30.6103 54.2795 30.7727 54.632C30.7992 54.6486 30.8489 54.6804 30.8493 54.6796C31.0576 54.3714 31.6926 54.48 31.6085 53.7845C31.3617 53.8964 31.2308 54.1018 30.9317 54.3462C31.0038 54.0703 31.0042 53.8935 31.0895 53.7829C31.2217 53.6118 31.4022 53.4722 31.5804 53.3442C31.9241 53.097 32.1863 52.7619 32.2853 52.3771C32.3678 52.0581 32.446 51.8581 32.7799 51.7438C32.9526 51.6845 33.0682 51.4584 33.2098 51.3076C33.7296 51.4211 33.8634 50.7542 34.3278 50.7546C34.3021 50.157 34.8902 50.0973 35.2059 49.9341C35.6366 49.7113 35.712 49.2308 36.1502 49.0233C36.6564 48.7843 37.0913 48.3767 37.5229 48.0027C38.3264 47.3052 39.1031 46.577 39.8975 45.8687C39.999 45.778 40.1514 45.7453 40.2554 45.6562C40.535 45.4177 40.7893 45.148 41.0759 44.9186C41.3062 44.7338 41.5224 44.4691 41.7233 44.3478C42.0501 44.1502 42.297 43.9472 42.4726 43.6262Z" fill="#726C65"/>
<path fill-rule="evenodd" clip-rule="evenodd" d="M26.8838 57.4079C27.3072 57.5098 27.4426 57.1205 27.7011 56.9362C27.9169 56.7821 28.0014 56.3741 28.4943 56.5849C28.2809 56.7021 28.102 56.8007 27.7731 56.9821C28.1629 57.2104 28.3464 57.3185 28.5096 57.4142C28.1869 57.9153 27.5404 58.0901 27.8966 58.9533C27.6033 58.6845 27.525 58.612 27.4028 58.5002C27.3751 59.2917 26.9613 59.7063 26.1598 59.7341C26.2601 59.8339 26.3131 59.8869 26.432 60.0062C25.8728 60.5654 25.2892 61.1072 24.7553 61.6945C24.24 62.2607 23.5533 62.6716 23.2186 63.4143C23.166 63.5319 22.8325 63.5232 22.5915 63.5816C22.6656 63.6748 22.7249 63.7498 22.7866 63.8272C22.6379 64.181 22.2415 64.3263 22.0973 64.7492C21.9329 65.2318 21.6736 65.1713 21.1902 64.7327C21.0975 64.6482 20.8361 64.7497 20.5809 64.7716C20.6079 64.6805 20.6112 64.5011 20.7011 64.3968C20.8717 64.1988 21.0892 64.0418 21.0096 63.7336C21.2896 63.4226 21.8724 63.3161 21.7067 62.7006C21.7018 62.6828 21.7527 62.6298 21.7825 62.6256C22.4908 62.5246 22.6462 61.7844 23.1527 61.4228C23.7251 61.014 24.1075 60.3446 24.5983 59.8128C25.3484 59.0001 26.1209 58.2086 26.8838 57.4079Z" fill="#726C65"/>
<path fill-rule="evenodd" clip-rule="evenodd" d="M42.4726 43.6263C42.297 43.9473 42.0501 44.1502 41.7233 44.3478C41.5224 44.4692 41.3062 44.7338 41.0759 44.9186C40.7893 45.148 40.535 45.4177 40.2554 45.6563C40.1514 45.7453 39.999 45.778 39.8975 45.8687C39.1031 46.577 38.3265 47.3052 37.5229 48.0027C37.0913 48.3767 36.6564 48.7843 36.1502 49.0233C35.712 49.2308 35.6366 49.7113 35.2059 49.9341C34.8902 50.0973 34.3021 50.157 34.3278 50.7547C33.8634 50.7542 33.7296 51.4211 33.2098 51.3076C33.2094 50.6395 33.7694 50.2878 34.189 50.0489C34.9002 49.6434 35.3483 48.9723 36.0359 48.5424C36.8362 48.0421 37.467 47.2778 38.2009 46.6636C39.3976 45.6625 40.6112 44.6812 41.838 43.7178C41.9834 43.6035 42.2576 43.6528 42.4726 43.6263Z" fill="#726C65"/>
<path fill-rule="evenodd" clip-rule="evenodd" d="M26.8839 57.4079C26.1209 58.2086 25.3484 59.0001 24.5983 59.8128C24.1075 60.3446 23.7252 61.014 23.1527 61.4228C22.6462 61.7844 22.4908 62.5246 21.7825 62.6256C21.7527 62.6298 21.7018 62.6828 21.7068 62.7006C21.8724 63.3161 21.2897 63.4225 21.0097 63.7336C20.7342 63.9486 20.4592 64.1636 20.1494 64.4054C20.1349 64.2729 20.0731 64.1221 20.1191 64.0737C21.4089 62.7105 22.3943 61.0686 23.878 59.894C24.141 59.686 23.9778 59.2375 24.4649 59.1774C24.6828 59.1505 24.8261 58.6899 25.046 58.4679C25.2722 58.2388 25.5638 58.0756 25.8007 57.8553C26.0207 57.6502 26.1983 57.4001 26.4088 57.1839C26.6374 56.949 26.8752 56.7216 27.1228 56.5066C27.3846 56.2792 27.663 56.0709 28.0519 55.7598C27.9015 56.599 27.115 56.8111 26.8839 57.4079Z" fill="#726C65"/>
<path fill-rule="evenodd" clip-rule="evenodd" d="M16.943 55.6004C17.2094 55.2094 17.8592 55.1606 17.8804 54.55C18.2946 54.2866 18.7875 54.0936 19.1039 53.7415C19.5252 53.273 19.8549 52.735 20.5242 52.5842C20.9964 51.7533 22.0261 51.4866 22.4921 50.6367C22.5786 50.4793 22.8375 50.4134 23.0218 50.314C23.6825 49.9574 24.0271 49.1787 24.805 48.9807C25.092 48.1755 26.1312 48.1527 26.4721 47.3553C26.5848 47.0919 27.0379 46.9739 27.3357 46.7896C27.2836 46.9544 27.2815 47.1772 27.1697 47.275C26.7356 47.6556 26.4266 48.1568 25.8537 48.4153C25.3347 48.6493 25.068 49.2267 24.5295 49.5378C23.8171 49.9495 23.248 50.6106 22.6197 51.1668C21.9354 51.7728 21.2851 52.4227 20.5636 52.9794C19.4974 53.8024 18.4673 54.6606 17.4852 55.6004H16.943Z" fill="#726C65"/>
<path fill-rule="evenodd" clip-rule="evenodd" d="M89.4658 13.126C89.0492 13.4764 88.3748 13.4454 88.0733 13.8306C87.766 14.2228 87.353 14.2547 87.0084 14.4775C86.6331 14.7211 86.2376 14.9336 85.8507 15.1593C85.2 15.2608 84.7688 15.7798 84.196 16.0341C83.882 16.1737 83.6016 16.3891 83.1555 16.6625C83.2031 16.3568 83.1737 16.1522 83.2582 16.0784C83.5502 15.8229 83.8642 15.581 84.2022 15.3909C85.5637 14.6246 86.9384 13.8807 88.3061 13.1248C88.6113 12.9562 88.8967 12.7483 89.2111 12.6016C89.417 12.5055 89.6589 12.4869 89.984 12.4099C89.7504 12.7329 89.6083 12.9297 89.4658 13.126Z" fill="#726C65"/>
</g>
</svg>
