<svg width="61" height="41" viewBox="0 0 61 41" fill="none" xmlns="http://www.w3.org/2000/svg">
<g opacity="0.4">
<path fill-rule="evenodd" clip-rule="evenodd" d="M8.34761 40.7878C6.71077 40.7878 5.07115 40.8274 3.4357 40.7732C2.39521 40.7391 1.49235 40.2262 0.69582 39.593C0.189825 39.1906 -0.128508 38.6199 0.0501199 37.9214C0.286436 37.0019 0.817454 37.6385 1.30746 37.6218C10.7858 37.3028 20.1468 35.8592 29.5292 34.6074C31.7033 34.3176 33.9212 34.2905 36.119 34.2912C36.8064 34.2919 37.8907 34.1473 37.9504 35.4137C38.0012 36.4903 37.2457 36.8031 36.4234 37.0262C32.153 38.1834 27.7575 38.645 23.4024 39.3129C18.4168 40.0782 13.3832 40.4146 8.34761 40.7878Z" fill="#D99655"/>
<path fill-rule="evenodd" clip-rule="evenodd" d="M57.4664 19.694C56.4439 19.4507 55.3249 18.9107 54.714 17.8494C51.7572 12.7136 49.0285 7.45421 46.6333 2.03213C46.0015 0.602417 46.5138 0.867926 47.8907 0.340384C51.254 -0.948932 52.0352 1.71866 53.4017 3.43474C55.8149 6.46585 57.5852 9.87715 58.8641 13.5401C59.1963 14.493 59.5661 15.4334 59.94 16.3703C60.9743 18.9663 60.5649 19.5675 57.4664 19.694Z" fill="#D99655"/>
<path fill-rule="evenodd" clip-rule="evenodd" d="M49.5983 25.0983C46.9134 26.6934 44.7837 25.3144 42.5102 24.2753C38.2419 22.3257 34.4609 19.6005 30.5415 17.0906C29.8298 16.6347 28.6607 16.1099 28.9846 15.2293C29.3015 14.3667 30.5818 14.5447 31.4784 14.5266C32.806 14.4988 33.8798 15.3037 34.9467 15.9118C39.4242 18.4599 43.8419 21.1143 48.2715 23.7464C48.7942 24.0564 49.3773 24.3504 49.5983 25.0983Z" fill="#D99655"/>
</g>
</svg>
